# xmcd
#
# Track frame offsets: 
#        150
#        16080
#        48247
#        68215
#        97967
#        118532
#        147285
#        171385
#        248110
#        269122
#
# Disc length: 3861 seconds
#
# Revision: 0
# Processed by: cddbd v1.5.2PL0 Copyright (c) Steve Scherf et al.
# Submitted via: ExactAudioCopy v0.90a11
#
DISCID=8a0f130a
DTITLE=John Lee Hooker - Don't Loose The Blues
DYEAR=1900
DGENRE=Blues
TTITLE0=So Lonley
TTITLE1=Mable
TTITLE2=I'm In The Mood
TTITLE3=Crawlin' King Snake Boggie
TTITLE4=Baby Lee
TTITLE5=Serve Me Right
TTITLE6=Boom Boom
TTITLE7=Doin' The Boogie
TTITLE8=The Healer
TTITLE9=Boogie Improvisation
EXTD=
EXTT0=
EXTT1=
EXTT2=
EXTT3=
EXTT4=
EXTT5=
EXTT6=
EXTT7=
EXTT8=
EXTT9=
PLAYORDER=
